# Blender v2.79 (sub 0) OBJ File: ''
# www.blender.org
mtllib cowboyHat.mtl
o Cube
v 0.412848 -0.219593 -0.512835
v 0.412848 -0.219593 0.512835
v -0.411784 -0.219593 0.512835
v -0.411784 -0.219593 -0.512835
v 0.518636 0.633506 -0.645747
v 0.520379 0.634229 0.644112
v -0.518859 0.638806 0.644706
v -0.517123 0.638077 -0.646354
v 0.541319 -0.257447 0.000000
v 0.000532 -0.257447 -0.672626
v 0.630864 -0.011147 -0.777683
v 0.000532 -0.257447 0.672626
v 0.624777 -0.013678 0.783452
v -0.540255 -0.257447 -0.000000
v -0.623714 -0.013678 0.783452
v -0.629801 -0.011147 -0.777683
v 0.655819 0.673573 -0.002240
v 0.000937 0.537820 -1.002627
v 0.000965 0.476317 0.924604
v -0.614868 0.675376 -0.002323
v 0.000532 -0.038890 -1.268795
v -0.867796 -0.061370 0.007585
v 0.000531 -0.058450 1.101502
v 0.868859 -0.061370 0.007586
v 0.000532 0.622855 0.000000
v 0.000532 -0.359864 -0.000000
v 0.495537 -0.243916 0.307842
v -0.246971 -0.243916 -0.615684
v 0.580445 0.168659 -0.722501
v -0.246971 -0.243916 0.615683
v 0.582017 0.167975 0.721003
v -0.494474 -0.243916 -0.307842
v -0.580415 0.167843 0.721386
v -0.578842 0.168521 -0.722891
v 0.589751 0.659217 0.396853
v -0.279839 0.517923 -0.881974
v -0.330953 0.590702 0.823896
v -0.548634 0.661051 -0.397177
v 0.495537 -0.243916 -0.307842
v 0.248035 -0.243916 -0.615684
v 0.248035 -0.243916 0.615683
v 0.608657 -0.481459 0.763656
v -0.494474 -0.243916 0.307842
v -0.607594 -0.481459 0.763656
v 0.587976 0.658492 -0.399897
v 0.257419 0.507271 -0.936376
v 0.326494 0.535104 0.800059
v -0.550472 0.661855 0.394117
v -0.397631 -0.041385 -0.984464
v 0.398695 -0.041385 -0.984464
v 0.000914 0.257704 -1.180274
v -0.785807 -0.044293 -0.482106
v -0.779753 -0.046056 0.492726
v -0.779381 0.265505 -0.002016
v -0.393414 -0.043841 0.986745
v 0.394477 -0.043841 0.986745
v 0.000930 0.258821 1.011134
v 0.780817 -0.046056 0.492727
v 0.786871 -0.044293 -0.482105
v 0.780482 0.265694 -0.002027
v 0.000531 0.572724 0.532065
v 0.000532 0.637843 -0.532065
v 0.399243 0.622073 -0.008755
v -0.430623 0.716770 0.058850
v -0.311506 -0.323296 -0.000000
v 0.312570 -0.323296 -0.000000
v 0.000532 -0.323296 -0.388110
v 0.000532 -0.323296 0.388110
v 0.301718 -0.296303 0.374613
v 0.301718 -0.296303 -0.374613
v -0.300655 -0.296303 -0.374614
v -0.392371 0.600118 -0.500296
v 0.331618 0.615701 -0.568481
v 0.405815 0.595087 0.509692
v 0.713040 0.230866 -0.444721
v 0.766754 -0.509218 0.484084
v 0.366566 0.225772 0.907867
v -0.386330 -0.511528 0.969223
v -0.713300 0.230268 0.442337
v -0.771784 -0.511095 -0.473295
v 0.365457 0.226364 -0.908436
v -0.363676 0.226304 -0.908715
v -0.390584 -0.514148 -0.966854
v -0.711689 0.230694 -0.445118
v -0.364795 0.225715 0.908136
v 0.714661 0.230435 0.441939
v -0.412369 0.694699 0.513562
v -0.300655 -0.296303 0.374613
v 0.784459 -0.976626 0.487521
v -0.662936 -0.937639 -0.825216
v 0.784459 -0.976626 -0.487521
v 0.850772 -0.997824 0.000000
v 0.000532 -0.997824 -1.057521
v -0.849708 -0.997824 -0.000000
v 0.000532 -0.531412 1.085945
v 0.615081 -0.483658 -0.757855
v -0.614018 -0.483658 -0.757855
v 0.000532 -0.555036 -1.178088
v 0.772847 -0.511094 -0.473294
v 0.387393 -0.511528 0.969223
v 0.664000 -0.937639 0.825215
v -0.391432 -0.976626 -0.975042
v -0.391432 -0.976626 0.975042
v -0.662936 -0.937639 0.825215
v -0.783396 -0.976626 -0.487521
v 0.392496 -0.976626 -0.975042
v 0.392495 -0.976626 0.975042
v 0.000532 -0.997824 1.057521
v -0.783396 -0.976626 0.487521
v -0.855760 -0.527999 0.007589
v 0.856823 -0.528000 0.007589
v 0.664000 -0.937639 -0.825215
v -0.765691 -0.509218 0.484084
v 0.391648 -0.514148 -0.966853
v 1.993966 -0.409546 1.239708
v 1.714936 -0.752100 2.132360
v -0.900664 -0.869684 -2.334294
v -1.625441 -0.602028 -1.980683
v -0.996186 -1.040509 2.479416
v -1.713872 -0.565970 2.132360
v -1.992902 -0.432146 -1.239709
v 2.124028 -0.377835 -1.216721
v 2.141985 -0.493153 0.000000
v 0.765994 -0.915654 -2.455266
v 0.000532 -0.921108 -2.663521
v 0.997249 -1.040509 2.479416
v 0.000532 -1.124116 2.663521
v -1.992903 -0.223416 1.239708
v -2.140922 -0.307023 -0.000001
v -2.207642 -0.285804 -0.053304
v 0.010407 -1.103989 2.648335
v 2.295696 -0.417474 -0.031431
v 1.601959 -0.371696 -1.993344
v 1.590961 -0.274063 -2.124992
v 1.703041 -0.725578 2.094319
v -1.681234 -0.558578 2.133490
v -1.690378 -0.575512 -2.029373
v -0.057054 -0.899500 -2.783181
v 2.110432 -0.324097 -1.296950
v 2.092266 -0.364908 1.223565
v 0.939868 -1.014723 2.462080
v -0.956748 -1.021403 2.426158
v -1.991813 -0.172879 1.259364
v -2.138412 -0.391498 -1.245619
v 0.794215 -0.901472 -2.485884
v -0.964128 -0.832016 -2.464503
vt 0.000000 0.000000
vt 1.000000 0.000000
vt 1.000000 1.000000
vt 0.000000 1.000000
vt 0.000000 0.000000
vt 1.000000 0.000000
vt 1.000000 1.000000
vt 0.000000 1.000000
vt 0.000000 0.000000
vt 1.000000 0.000000
vt 1.000000 1.000000
vt 0.000000 1.000000
vt 0.000000 0.000000
vt 1.000000 0.000000
vt 0.000000 1.000000
vt 0.000000 0.000000
vt 1.000000 0.000000
vt 1.000000 1.000000
vt 0.000000 1.000000
vt 0.000000 0.000000
vt 1.000000 0.000000
vt 1.000000 1.000000
vt 0.000000 0.000000
vt 1.000000 0.000000
vt 1.000000 1.000000
vt 0.000000 1.000000
vt 0.000000 0.000000
vt 1.000000 0.000000
vt 1.000000 1.000000
vt 0.000000 1.000000
vt 0.000000 0.000000
vt 1.000000 0.000000
vt 0.000000 1.000000
vt 0.000000 0.000000
vt 1.000000 0.000000
vt 1.000000 1.000000
vt 0.000000 1.000000
vt 0.000000 0.000000
vt 1.000000 1.000000
vt 0.000000 1.000000
vt 0.000000 0.000000
vt 1.000000 0.000000
vt 1.000000 1.000000
vt 0.000000 1.000000
vt 0.000000 0.000000
vt 1.000000 0.000000
vt 1.000000 1.000000
vt 0.000000 1.000000
vt 0.000000 0.000000
vt 1.000000 0.000000
vt 1.000000 1.000000
vt 0.000000 1.000000
vt 0.000000 0.000000
vt 1.000000 0.000000
vt 1.000000 1.000000
vt 0.000000 1.000000
vt 0.000000 0.000000
vt 1.000000 0.000000
vt 1.000000 1.000000
vt 0.000000 1.000000
vt 0.000000 0.000000
vt 1.000000 0.000000
vt 1.000000 1.000000
vt 0.000000 1.000000
vt 0.000000 0.000000
vt 1.000000 0.000000
vt 0.000000 1.000000
vt 0.000000 0.000000
vt 1.000000 0.000000
vt 1.000000 1.000000
vt 0.000000 1.000000
vt 0.000000 0.000000
vt 0.000000 1.000000
vt 0.000000 0.000000
vt 1.000000 0.000000
vt 1.000000 1.000000
vt 0.000000 1.000000
vt 0.000000 0.000000
vt 1.000000 0.000000
vt 1.000000 1.000000
vt 0.000000 1.000000
vt 0.000000 0.000000
vt 1.000000 0.000000
vt 1.000000 1.000000
vt 0.000000 1.000000
vt 0.000000 0.000000
vt 1.000000 0.000000
vt 1.000000 1.000000
vt 0.000000 1.000000
vt 0.000000 0.000000
vt 1.000000 0.000000
vt 1.000000 1.000000
vt 0.000000 1.000000
vt 1.000000 0.000000
vt 1.000000 1.000000
vt 0.000000 1.000000
vt 0.000000 0.000000
vt 1.000000 0.000000
vt 1.000000 1.000000
vt 0.000000 1.000000
vt 0.000000 0.000000
vt 1.000000 0.000000
vt 1.000000 1.000000
vt 0.000000 1.000000
vt 0.000000 0.000000
vt 1.000000 1.000000
vt 0.000000 1.000000
vt 0.000000 0.000000
vt 1.000000 0.000000
vt 1.000000 1.000000
vt 0.000000 1.000000
vt 0.000000 0.000000
vt 1.000000 0.000000
vt 1.000000 1.000000
vt 0.000000 1.000000
vt 0.000000 0.000000
vt 1.000000 0.000000
vt 1.000000 1.000000
vt 0.000000 1.000000
vt 0.000000 0.000000
vt 1.000000 0.000000
vt 1.000000 1.000000
vt 0.000000 1.000000
vt 0.000000 0.000000
vt 1.000000 0.000000
vt 1.000000 1.000000
vt 0.000000 1.000000
vt 0.000000 0.000000
vt 1.000000 0.000000
vt 1.000000 1.000000
vt 0.000000 1.000000
vt 0.000000 0.000000
vt 1.000000 0.000000
vt 1.000000 1.000000
vt 0.000000 1.000000
vt 0.000000 0.000000
vt 1.000000 0.000000
vt 1.000000 1.000000
vt 0.000000 1.000000
vt 0.000000 0.000000
vt 1.000000 0.000000
vt 1.000000 1.000000
vt 0.000000 1.000000
vt 0.000000 0.000000
vt 1.000000 0.000000
vt 1.000000 1.000000
vt 0.000000 1.000000
vt 0.000000 0.000000
vt 1.000000 0.000000
vt 1.000000 1.000000
vt 0.000000 1.000000
vt 0.000000 0.000000
vt 1.000000 0.000000
vt 1.000000 1.000000
vt 0.000000 1.000000
vt 0.000000 0.000000
vt 1.000000 0.000000
vt 1.000000 1.000000
vt 0.000000 1.000000
vt 0.000000 0.000000
vt 1.000000 0.000000
vt 1.000000 1.000000
vt 0.000000 1.000000
vt 0.000000 0.000000
vt 1.000000 0.000000
vt 1.000000 1.000000
vt 0.000000 1.000000
vt 1.000000 0.000000
vt 1.000000 1.000000
vt 0.000000 1.000000
vt 0.000000 0.000000
vt 1.000000 0.000000
vt 1.000000 1.000000
vt 0.000000 1.000000
vt 0.000000 0.000000
vt 1.000000 0.000000
vt 1.000000 1.000000
vt 0.000000 1.000000
vt 0.000000 0.000000
vt 1.000000 0.000000
vt 1.000000 1.000000
vt 0.000000 1.000000
vt 0.000000 0.000000
vt 1.000000 0.000000
vt 1.000000 1.000000
vt 0.000000 1.000000
vt 0.000000 0.000000
vt 1.000000 0.000000
vt 0.000000 1.000000
vt 1.000000 0.000000
vt 1.000000 1.000000
vt 0.000000 1.000000
vt 0.000000 0.000000
vt 1.000000 0.000000
vt 1.000000 1.000000
vt 0.000000 1.000000
vt 0.000000 0.000000
vt 1.000000 0.000000
vt 1.000000 1.000000
vt 0.000000 1.000000
vt 0.000000 0.000000
vt 1.000000 0.000000
vt 1.000000 1.000000
vt 0.000000 1.000000
vt 0.000000 0.000000
vt 1.000000 0.000000
vt 1.000000 1.000000
vt 0.000000 1.000000
vt 0.000000 0.000000
vt 1.000000 0.000000
vt 1.000000 1.000000
vt 0.000000 1.000000
vt 0.000000 0.000000
vt 1.000000 0.000000
vt 1.000000 1.000000
vt 0.000000 1.000000
vt 0.000000 0.000000
vt 1.000000 0.000000
vt 1.000000 1.000000
vt 0.000000 1.000000
vt 0.000000 0.000000
vt 1.000000 0.000000
vt 1.000000 1.000000
vt 0.000000 1.000000
vt 0.000000 0.000000
vt 1.000000 0.000000
vt 1.000000 1.000000
vt 0.000000 1.000000
vt 0.000000 0.000000
vt 1.000000 0.000000
vt 1.000000 1.000000
vt 0.000000 1.000000
vt 1.000000 0.000000
vt 1.000000 1.000000
vt 0.000000 1.000000
vt 0.000000 0.000000
vt 1.000000 1.000000
vt 0.000000 1.000000
vt 1.000000 0.000000
vt 1.000000 1.000000
vt 0.000000 1.000000
vt 1.000000 1.000000
vt 0.000000 1.000000
vt 1.000000 1.000000
vt 0.000000 1.000000
vt 1.000000 0.000000
vt 1.000000 1.000000
vt 0.000000 1.000000
vt 1.000000 0.000000
vt 1.000000 1.000000
vt 0.000000 1.000000
vt 0.000000 0.000000
vt 1.000000 0.000000
vt 1.000000 1.000000
vt 0.000000 1.000000
vt 0.000000 0.000000
vt 1.000000 0.000000
vt 1.000000 1.000000
vt 0.000000 1.000000
vt 0.000000 0.000000
vt 1.000000 0.000000
vt 1.000000 1.000000
vt 0.000000 1.000000
vt 0.000000 0.000000
vt 1.000000 0.000000
vt 0.000000 0.000000
vt 1.000000 0.000000
vt 1.000000 1.000000
vt 0.000000 1.000000
vt 0.000000 0.000000
vt 1.000000 0.000000
vt 0.000000 1.000000
vt 0.000000 0.000000
vt 1.000000 0.000000
vt 1.000000 1.000000
vt 0.000000 1.000000
vt 0.000000 0.000000
vt 1.000000 0.000000
vt 1.000000 1.000000
vt 0.000000 1.000000
vt 0.000000 0.000000
vt 1.000000 0.000000
vt 1.000000 1.000000
vt 0.000000 1.000000
vt 0.000000 0.000000
vt 1.000000 0.000000
vt 1.000000 1.000000
vt 0.000000 1.000000
vt 0.000000 0.000000
vt 1.000000 0.000000
vt 1.000000 1.000000
vt 0.000000 1.000000
vt 0.000000 0.000000
vt 1.000000 0.000000
vt 1.000000 1.000000
vt 0.000000 1.000000
vt 0.000000 0.000000
vt 1.000000 0.000000
vt 0.000000 1.000000
vt 0.000000 0.000000
vt 1.000000 0.000000
vt 1.000000 1.000000
vt 0.000000 1.000000
vt 0.000000 0.000000
vt 0.000000 1.000000
vt 0.000000 0.000000
vt 1.000000 0.000000
vt 1.000000 1.000000
vt 0.000000 1.000000
vt 0.000000 0.000000
vt 1.000000 0.000000
vt 1.000000 1.000000
vt 0.000000 1.000000
vt 0.000000 0.000000
vt 1.000000 0.000000
vt 1.000000 1.000000
vt 0.000000 1.000000
vt 1.000000 0.000000
vt 1.000000 1.000000
vt 0.000000 1.000000
vt 0.000000 0.000000
vt 1.000000 1.000000
vt 0.000000 1.000000
vt 0.000000 0.000000
vt 1.000000 1.000000
vt 0.000000 1.000000
vt 0.000000 0.000000
vt 1.000000 0.000000
vt 1.000000 1.000000
vt 0.000000 1.000000
vt 1.000000 1.000000
vt 0.000000 1.000000
vt 0.000000 0.000000
vt 1.000000 0.000000
vt 1.000000 1.000000
vt 0.000000 1.000000
vt 1.000000 0.000000
vt 1.000000 1.000000
vt 0.000000 1.000000
vt 0.000000 0.000000
vt 1.000000 1.000000
vt 0.000000 1.000000
vt 1.000000 0.000000
vt 1.000000 1.000000
vt 0.000000 1.000000
vt 0.000000 0.000000
vt 1.000000 1.000000
vt 0.000000 1.000000
vt 0.000000 0.000000
vt 1.000000 0.000000
vt 1.000000 1.000000
vt 0.000000 1.000000
vt 1.000000 0.000000
vt 1.000000 1.000000
vt 0.000000 1.000000
vt 0.000000 0.000000
vt 1.000000 0.000000
vt 1.000000 1.000000
vt 0.000000 1.000000
vt 0.000000 0.000000
vt 1.000000 1.000000
vt 0.000000 1.000000
vt 0.000000 0.000000
vt 1.000000 0.000000
vt 1.000000 1.000000
vt 0.000000 1.000000
vt 0.000000 0.000000
vt 1.000000 1.000000
vt 0.000000 1.000000
vt 0.000000 0.000000
vt 1.000000 0.000000
vt 1.000000 1.000000
vt 0.000000 1.000000
vt 1.000000 0.000000
vt 1.000000 1.000000
vt 0.000000 1.000000
vt 0.000000 0.000000
vt 1.000000 0.000000
vt 1.000000 1.000000
vt 0.000000 1.000000
vt 1.000000 0.000000
vt 1.000000 1.000000
vt 0.000000 1.000000
vt 0.000000 0.000000
vt 1.000000 0.000000
vt 1.000000 1.000000
vt 0.000000 1.000000
vt 0.000000 0.000000
vt 1.000000 1.000000
vt 0.000000 1.000000
vt 0.000000 0.000000
vt 1.000000 0.000000
vt 1.000000 1.000000
vt 0.000000 1.000000
vt 0.000000 0.000000
vt 1.000000 0.000000
vt 1.000000 1.000000
vt 0.000000 1.000000
vt 0.000000 0.000000
vt 1.000000 1.000000
vt 0.000000 1.000000
vt 0.000000 0.000000
vt 1.000000 0.000000
vt 1.000000 1.000000
vt 0.000000 1.000000
vt 0.000000 0.000000
vt 1.000000 0.000000
vt 1.000000 1.000000
vt 0.000000 0.000000
vt 1.000000 0.000000
vt 0.000000 0.000000
vt 1.000000 0.000000
vt 1.000000 1.000000
vt 0.000000 0.000000
vt 1.000000 0.000000
vt 1.000000 1.000000
vt 0.000000 0.000000
vt 1.000000 0.000000
vt 1.000000 1.000000
vt 0.000000 1.000000
vt 0.000000 0.000000
vt 1.000000 0.000000
vt 1.000000 1.000000
vt 0.000000 1.000000
vt 0.000000 0.000000
vt 1.000000 0.000000
vt 0.000000 0.000000
vt 1.000000 0.000000
vt 0.000000 0.000000
vt 1.000000 0.000000
vt 0.000000 0.000000
vt 1.000000 0.000000
vt 1.000000 1.000000
vt 0.000000 1.000000
vt 0.000000 0.000000
vt 1.000000 0.000000
vt 1.000000 1.000000
vt 0.000000 1.000000
vt 0.000000 0.000000
vt 1.000000 0.000000
vt 1.000000 1.000000
vt 0.000000 0.000000
vt 1.000000 0.000000
vt 1.000000 1.000000
vt 0.000000 0.000000
vt 1.000000 0.000000
vt 1.000000 1.000000
vt 0.000000 1.000000
vt 0.000000 0.000000
vt 1.000000 0.000000
vt 0.000000 0.000000
vt 1.000000 0.000000
vt 1.000000 1.000000
vt 0.000000 0.000000
vt 1.000000 0.000000
vt 1.000000 1.000000
vt 1.000000 0.000000
vt 0.000000 1.000000
vt 1.000000 0.000000
vt 0.000000 1.000000
vt 1.000000 0.000000
vt 0.000000 1.000000
vt 1.000000 0.000000
vt 0.000000 1.000000
vt 0.000000 0.000000
vt 1.000000 0.000000
vt 1.000000 1.000000
vt 1.000000 0.000000
vt 0.000000 1.000000
vt 0.000000 0.000000
vt 1.000000 0.000000
vt 0.000000 1.000000
vt 1.000000 0.000000
vt 0.000000 1.000000
vt 0.000000 0.000000
vt 1.000000 0.000000
vt 1.000000 1.000000
vt 1.000000 0.000000
vt 0.000000 1.000000
vt 0.000000 0.000000
vt 1.000000 0.000000
vt 1.000000 1.000000
vt 1.000000 0.000000
vt 0.000000 1.000000
vt 0.000000 0.000000
vt 1.000000 0.000000
vt 1.000000 1.000000
vt 0.000000 0.000000
vt 1.000000 0.000000
vt 0.000000 1.000000
vt 1.000000 0.000000
vt 0.000000 1.000000
vn -0.2092 -0.9628 0.1707
vn 0.1000 -0.8918 -0.4413
vn 0.3200 -0.9114 -0.2586
vn 0.4526 -0.8902 -0.0512
vn 0.0114 0.9839 0.1780
vn -0.6481 0.7355 0.1972
vn -0.6183 0.6421 0.4531
vn -0.2240 0.7049 0.6730
vn 0.9185 0.2737 0.2853
vn 0.4669 0.8581 0.2135
vn 0.3745 0.8094 0.4523
vn 0.7599 0.2926 0.5805
vn -0.4648 0.2802 0.8399
vn -0.7748 0.2899 0.5618
vn -0.9135 0.3044 -0.2698
vn -0.4933 0.8394 -0.2282
vn -0.4039 0.8039 -0.4365
vn -0.7704 0.2965 -0.5644
vn -0.5989 0.2851 -0.7484
vn -0.6169 0.1056 -0.7799
vn -0.7780 0.1517 -0.6096
vn 0.6093 0.2657 -0.7471
vn 0.6170 0.1051 -0.7799
vn -0.0001 0.0967 -0.9953
vn -0.0069 0.3478 -0.9375
vn -0.4526 -0.8902 -0.0512
vn -0.4856 -0.8741 0.0000
vn -0.3292 -0.9442 0.0034
vn -0.3150 -0.9420 -0.1155
vn -0.5743 0.7695 -0.2793
vn -0.9380 0.1256 -0.3229
vn -0.4740 0.6908 -0.5460
vn -0.5278 0.8045 0.2723
vn -0.9351 0.1225 0.3325
vn -0.9934 0.1145 0.0063
vn -0.5907 0.8049 -0.0563
vn -0.9152 0.3005 0.2686
vn -0.6224 0.7820 -0.0321
vn -0.9474 0.3199 -0.0011
vn -0.1834 0.6206 0.7624
vn -0.4832 0.1270 0.8662
vn -0.7744 0.1479 0.6151
vn -0.3619 0.6710 0.6471
vn 0.2375 0.6302 0.7392
vn 0.4832 0.1267 0.8663
vn 0.0000 0.1206 0.9927
vn -0.0049 0.6315 0.7754
vn 0.4563 0.3060 0.8355
vn 0.2428 0.7295 0.6395
vn 0.0548 0.6550 0.7536
vn 0.0114 0.3097 0.9507
vn 0.5820 0.7604 0.2882
vn 0.9351 0.1221 0.3325
vn 0.7745 0.1474 0.6152
vn 0.4469 0.6519 0.6126
vn 0.6126 0.7748 -0.1562
vn 0.9381 0.1252 -0.3229
vn 0.9934 0.1142 0.0063
vn 0.6300 0.7765 0.0121
vn 0.9169 0.2776 -0.2867
vn 0.5100 0.8343 -0.2093
vn 0.5463 0.8375 0.0086
vn 0.9599 0.2802 -0.0011
vn -0.2036 0.9754 0.0840
vn 0.1073 0.9822 0.1541
vn -0.0555 0.9908 -0.1231
vn 0.0106 0.9904 -0.1374
vn 0.0759 0.9970 0.0110
vn -0.1096 0.9936 0.0275
vn 0.1413 0.9829 -0.1175
vn 0.0080 0.9999 -0.0092
vn -0.2092 -0.9628 -0.1707
vn -0.1946 -0.9809 0.0000
vn 0.4856 -0.8741 0.0000
vn 0.4526 -0.8902 0.0512
vn 0.2092 -0.9628 -0.1707
vn 0.1946 -0.9809 0.0000
vn 0.0000 -1.0000 0.0000
vn 0.0000 -0.9873 -0.1587
vn 0.2092 -0.9628 0.1707
vn -0.1000 -0.8918 -0.4413
vn 0.0000 -0.8702 -0.4926
vn 0.0000 -0.9873 0.1587
vn -0.3200 -0.9114 -0.2586
vn -0.1000 -0.8918 0.4413
vn 0.0000 -0.8702 0.4926
vn -0.3200 -0.9114 0.2586
vn -0.4526 -0.8902 0.0512
vn 0.1000 -0.8918 0.4413
vn 0.3200 -0.9114 0.2586
vn -0.0269 0.7355 -0.6770
vn -0.4076 0.6807 -0.6087
vn 0.4633 0.7529 -0.4674
vn 0.4135 0.6409 -0.6467
vn 0.7781 0.1513 -0.6096
vn 0.7718 0.2833 -0.5692
vn 0.0168 -0.8849 0.4655
vn -0.0775 -0.9668 0.2436
vn 0.4376 0.7380 -0.5136
vn -0.3413 -0.9395 0.0268
vn 0.2989 -0.9467 0.1197
vn 0.1123 -0.9485 0.2959
vn 0.2581 -0.9603 -0.1057
vn 0.2770 -0.9599 0.0432
vn 0.2434 0.6352 -0.7330
vn 0.0233 0.7287 -0.6844
vn 0.0025 -0.8551 -0.5184
vn 0.0191 -0.9218 -0.3872
vn -0.3421 0.6474 -0.6811
vn 0.0337 -0.8928 0.4491
vn -0.0127 -0.9008 0.4341
vn -0.1014 -0.9192 -0.3804
vn -0.0458 -0.8620 -0.5048
vn 0.0000 -0.8697 -0.4936
vn -0.8659 -0.3169 0.3869
vn -0.7844 -0.5907 0.1892
vn 0.0006 0.8487 0.5289
vn 0.1001 0.8788 0.4665
vn 0.3106 -0.4198 0.8528
vn 0.0303 -0.3603 0.9323
vn -0.0794 -0.0146 -0.9967
vn -0.5088 -0.0285 -0.8604
vn -0.0079 -0.9889 -0.1482
vn 0.2786 -0.9452 -0.1698
vn -0.7947 0.1502 -0.5880
vn 0.5880 -0.6555 0.4738
vn 0.0139 0.8201 0.5720
vn 0.5371 0.6079 0.5847
vn 0.5161 -0.8368 -0.1824
vn 0.4497 -0.8931 0.0079
vn 0.0227 0.8468 0.5314
vn -0.3432 -0.9390 0.0208
vn -0.3354 -0.9419 -0.0161
vn 0.5138 0.5431 -0.6640
vn 0.4819 0.1358 -0.8656
vn 0.5854 -0.7472 -0.3145
vn -0.2809 -0.3702 0.8854
vn -0.2130 -0.9742 -0.0743
vn 0.8056 0.4145 -0.4233
vn 0.9542 0.2988 -0.0113
vn 0.4743 -0.8802 -0.0144
vn 0.8744 0.3494 0.3366
vn -0.4711 0.8205 0.3239
vn -0.9115 0.4054 0.0691
vn -0.5581 -0.8240 0.0975
vn -0.9757 0.2099 -0.0631
usemtl Material
s 1
f 88/1/1 30/2/2 3/3/3 43/4/4
f 87/5/5 48/6/6 7/7/7 37/8/8
f 86/9/9 35/10/10 6/11/11 31/12/12
f 85/13/13 37/14/8 7/7/7 33/15/14
f 84/16/15 38/17/16 8/18/17 34/19/18
f 82/20/19 49/21/20 16/22/21 34/19/18
f 81/23/22 50/24/23 21/25/24 51/26/25
f 27/27/26 9/28/27 92/29/28 89/30/29
f 80/31/30 52/32/31 16/22/21 97/33/32
f 113/34/33 53/35/34 22/36/35 110/37/36
f 79/38/37 48/6/6 20/39/38 54/40/39
f 78/41/40 55/42/41 15/43/42 44/44/43
f 100/45/44 56/46/45 23/47/46 95/48/47
f 77/49/48 47/50/49 19/51/50 57/52/51
f 76/53/52 58/54/53 13/55/54 42/56/55
f 99/57/56 59/58/57 24/59/58 111/60/59
f 75/61/60 45/62/61 17/63/62 60/64/63
f 74/65/64 61/66/65 19/51/50 47/67/49
f 73/68/66 62/69/67 25/70/68 63/71/69
f 72/72/70 38/17/16 20/39/38 64/73/71
f 71/74/72 65/75/73 14/76/74 32/77/75
f 70/78/76 66/79/77 26/80/78 67/81/79
f 69/82/80 41/83/81 12/84/82 68/85/83
f 66/86/77 69/87/80 68/88/83 26/89/78
f 9/90/27 27/91/26 69/92/80 66/93/77
f 27/27/26 2/94/84 41/95/81 69/96/80
f 40/97/85 70/98/76 67/99/79 10/100/86
f 1/101/87 39/102/88 70/103/76 40/104/85
f 39/105/88 9/28/27 66/106/77 70/107/76
f 28/108/89 71/109/72 32/110/75 4/111/90
f 10/112/86 67/113/79 71/114/72 28/115/89
f 67/116/79 26/117/78 65/118/73 71/119/72
f 62/120/67 72/121/70 64/122/71 25/123/68
f 18/124/91 36/125/92 72/126/70 62/127/67
f 36/128/92 8/129/17 38/130/16 72/131/70
f 45/132/61 73/133/66 63/134/69 17/135/62
f 5/136/93 46/137/94 73/138/66 45/139/61
f 46/140/94 18/141/91 62/142/67 73/143/66
f 35/144/10 74/145/64 47/146/49 6/147/11
f 17/148/62 63/149/69 74/150/64 35/151/10
f 63/152/69 25/153/68 61/154/65 74/155/64
f 59/156/57 75/157/60 60/158/63 24/159/58
f 11/160/95 29/161/96 75/162/60 59/163/57
f 29/164/96 5/165/93 45/166/61 75/167/60
f 1/101/87 40/168/85 106/169/97 112/170/98
f 96/171/99 11/172/95 59/173/57 99/174/56
f 111/175/59 24/176/58 58/177/53 76/178/52
f 56/179/45 77/180/48 57/181/51 23/182/46
f 13/183/54 31/184/12 77/185/48 56/186/45
f 31/187/12 6/188/11 47/146/49 77/189/48
f 39/105/88 1/190/87 112/191/98 91/192/100
f 42/193/55 13/194/54 56/195/45 100/196/44
f 4/197/90 32/198/75 105/199/101 90/200/102
f 95/201/47 23/202/46 55/203/41 78/204/40
f 53/205/34 79/206/37 54/207/39 22/208/35
f 15/209/42 33/210/14 79/211/37 53/212/34
f 33/213/14 7/214/7 48/215/6 79/216/37
f 44/217/43 15/218/42 53/219/34 113/220/33
f 14/221/74 43/222/4 109/223/103 94/224/104
f 110/225/36 22/226/35 52/227/31 80/228/30
f 50/229/23 114/230/105 98/231/106 21/232/24
f 11/160/95 96/233/99 114/234/105 50/235/23
f 3/236/3 30/2/2 103/237/107 104/238/108
f 46/140/94 81/239/22 51/240/25 18/241/91
f 5/136/93 29/161/96 81/242/22 46/243/94
f 29/164/96 11/172/95 50/244/23 81/245/22
f 36/128/92 82/246/19 34/247/18 8/248/17
f 18/124/91 51/249/25 82/250/19 36/251/92
f 51/252/25 21/253/24 49/254/20 82/255/19
f 49/256/20 83/257/109 97/258/32 16/259/21
f 21/260/24 98/261/106 83/262/109 49/263/20
f 52/264/31 84/265/15 34/247/18 16/259/21
f 22/266/35 54/267/39 84/268/15 52/269/31
f 54/270/39 20/271/38 38/130/16 84/272/15
f 55/273/41 85/274/13 33/275/14 15/276/42
f 23/277/46 57/278/51 85/279/13 55/280/41
f 57/281/51 19/282/50 37/283/8 85/284/13
f 58/285/53 86/286/9 31/287/12 13/288/54
f 24/289/58 60/290/63 86/291/9 58/292/53
f 60/293/63 17/294/62 35/295/10 86/296/9
f 61/297/65 87/298/5 37/283/8 19/299/50
f 25/300/68 64/301/71 87/302/5 61/303/65
f 64/304/71 20/271/38 48/215/6 87/305/5
f 65/306/73 88/307/1 43/308/4 14/309/74
f 26/310/78 68/311/83 88/312/1 65/313/73
f 68/314/83 12/315/82 30/316/2 88/317/1
f 10/112/86 28/318/89 102/319/110 93/320/111
f 41/321/81 2/94/84 101/322/112 107/323/113
f 30/324/2 12/315/82 108/325/114 103/326/107
f 43/327/4 3/328/3 104/329/108 109/330/103
f 9/90/27 39/102/88 91/331/100 92/332/28
f 32/333/75 14/334/74 94/335/104 105/336/101
f 40/97/85 10/337/86 93/338/111 106/339/97
f 2/340/84 27/91/26 89/341/29 101/342/112
f 28/108/89 4/343/90 90/344/102 102/345/110
f 12/346/82 41/83/81 107/347/113 108/348/114
f 109/349/103 104/350/108 120/351/115 128/352/116
f 78/41/40 44/353/43 136/354/117 142/355/118
f 108/356/114 107/357/113 126/358/119 127/359/120
f 83/360/109 98/261/106 138/361/121 146/362/122
f 106/363/97 93/364/111 125/365/123 124/366/124
f 97/367/32 83/257/109 146/368/122 137/369/125
f 107/370/113 101/371/112 116/372/126 126/373/119
f 42/193/55 100/374/44 141/375/127 135/376/128
f 92/377/28 91/378/100 122/379/129 123/380/130
f 100/45/44 95/381/47 131/382/131 141/383/127
f 90/384/102 105/385/101 121/386/132 118/387/133
f 114/388/105 96/233/99 134/389/134 145/390/135
f 112/391/98 106/392/97 124/393/124 133/394/136
f 104/395/108 103/396/107 119/397/137 120/398/115
f 98/399/106 114/230/105 145/400/135 138/401/121
f 91/402/100 112/403/98 133/404/136 122/405/129
f 146/406/122 117/407/138 118/408/133 137/369/125
f 145/409/135 124/410/124 125/365/123 138/401/121
f 122/411/129 139/412/139 132/413/140 123/380/130
f 133/414/136 134/415/134 139/416/139 122/405/129
f 115/417/141 140/418/142 135/419/128 116/420/126
f 123/421/130 132/422/140 140/423/142 115/424/141
f 126/425/119 141/426/127 131/382/131 127/359/120
f 116/427/126 135/428/128 141/375/127 126/373/119
f 119/429/137 142/430/118 136/354/117 120/398/115
f 127/431/120 131/432/131 142/433/118 119/434/137
f 128/435/116 143/436/143 130/437/144 129/438/145
f 120/439/115 136/440/117 143/441/143 128/352/116
f 121/442/132 144/443/146 137/444/125 118/387/133
f 129/445/145 130/446/144 144/447/146 121/448/132
f 134/449/134 133/450/136 124/393/124 145/390/135
f 138/451/121 125/452/123 117/453/138 146/362/122
f 94/454/104 109/455/103 128/456/116 129/438/145
f 95/201/47 78/457/40 142/433/118 131/458/131
f 113/34/33 110/459/36 130/437/144 143/460/143
f 44/217/43 113/461/33 143/441/143 136/462/117
f 99/57/56 111/463/59 132/413/140 139/464/139
f 89/465/29 92/466/28 123/467/130 115/424/141
f 96/171/99 99/468/56 139/416/139 134/469/134
f 93/470/111 102/471/110 117/453/138 125/472/123
f 80/31/30 97/473/32 137/444/125 144/474/146
f 103/475/107 108/476/114 127/477/120 119/434/137
f 110/225/36 80/478/30 144/447/146 130/479/144
f 101/480/112 89/481/29 115/482/141 116/420/126
f 76/53/52 42/483/55 135/419/128 140/484/142
f 105/485/101 94/486/104 129/487/145 121/448/132
f 102/488/110 90/489/102 118/408/133 117/490/138
f 111/175/59 76/491/52 140/423/142 132/492/140
